<svg xmlns="http://www.w3.org/2000/svg" viewBox="0 0 960 460">
  <rect width="960" height="460" fill="#1b2733"/>
  <rect y="300" width="960" height="160" fill="#38414b"/>
  <path d="M0 318h960" stroke="#63717c" stroke-width="8"/>
  <path d="M0 382h960" stroke="#20272e" stroke-width="18" stroke-dasharray="58 42"/>
  <rect x="44" y="102" width="245" height="206" rx="10" fill="#744236"/>
  <rect x="58" y="134" width="217" height="44" fill="#ffd15c"/>
  <rect x="84" y="198" width="54" height="110" fill="#273340"/>
  <rect x="160" y="198" width="80" height="64" fill="#94d6c8"/>
  <path d="M44 102h245l-28-54H72z" fill="#d85c7a"/>
  <rect x="357" y="70" width="246" height="238" rx="10" fill="#2f5d6a"/>
  <rect x="376" y="112" width="208" height="50" fill="#f6f1e8"/>
  <rect x="400" y="194" width="56" height="114" fill="#273340"/>
  <rect x="480" y="194" width="80" height="70" fill="#8fd3c7"/>
  <path d="M357 70h246l-31-58H389z" fill="#ffcb58"/>
  <rect x="674" y="116" width="242" height="192" rx="10" fill="#5a4f65"/>
  <rect x="690" y="148" width="210" height="42" fill="#f0a6c0"/>
  <rect x="718" y="212" width="60" height="96" fill="#273340"/>
  <rect x="806" y="212" width="70" height="58" fill="#d7b27a"/>
  <path d="M674 116h242l-24-50H698z" fill="#94d6c8"/>
  <circle cx="120" cy="344" r="18" fill="#ffcb58"/>
  <circle cx="840" cy="338" r="22" fill="#d85c7a"/>
  <circle cx="520" cy="342" r="16" fill="#8fd3c7"/>
  <text x="166" y="166" text-anchor="middle" font-size="34" font-family="sans-serif" font-weight="700" fill="#2a1b0e">装扮铺</text>
  <text x="480" y="148" text-anchor="middle" font-size="34" font-family="sans-serif" font-weight="700" fill="#2a1b0e">电器铺</text>
  <text x="795" y="180" text-anchor="middle" font-size="32" font-family="sans-serif" font-weight="700" fill="#2a1b0e">厨具商场</text>
</svg>
